<svg xmlns="http://www.w3.org/2000/svg" viewBox="-4584 -227 47 40.514">
  <defs>
    <style>
      .cls-1 {
        fill: #5297cc;
      }
    </style>
  </defs>
  <path id="Icn_SD_Addprinter_48" class="cls-1" d="M-1047.732-12.852a9.365,9.365,0,0,1,9.365-9.365A9.365,9.365,0,0,1-1029-12.852a9.366,9.366,0,0,1-9.366,9.366A9.365,9.365,0,0,1-1047.732-12.852Zm3.405,1.7h4.257v4.256h3.406v-4.256h4.257v-3.406h-4.257v-4.257h-3.406v4.257h-4.257Zm-24.476.738v-7.2h-7.2v-12l2.407-2.4h4.8V-44h16.494l7.492,7.585V-32h4.8l2.4,2.4v3.911c-.248-.013-.494-.036-.745-.036a12.814,12.814,0,0,0-8.855,3.54V-24.8H-1066.4v12h15.168a12.965,12.965,0,0,0,.237,2.4Zm-4.8-16.788h2.4V-29.6h-2.4Zm7.2-4.8h19.191v-2.4h-7.2v-7.2H-1066.4ZM-1064-15.2v-2.4h13.682a12.7,12.7,0,0,0-.691,2.4Zm13.682-2.4h0ZM-1064-20v-2.4h14.393V-20Z" transform="translate(-3508 -183)"/>
</svg>
